<svg version="1.1" xmlns="http://www.w3.org/2000/svg" style="display: block;" viewBox="0 0 2048 2048" width="1024" height="1024" preserveAspectRatio="none">
<path transform="translate(0,0)" fill="rgb(0,0,0)" d="M 786.666 490.47 C 837.564 489.727 876.792 504.018 913.84 539.135 C 939.929 563.864 954.001 588.164 972.919 617.891 C 984.661 636.233 996.499 654.513 1008.43 672.73 C 1046.37 729.872 1083.87 787.3 1120.94 845.008 C 1149.71 889.611 1177.48 934.567 1207.99 978.023 C 1232.97 979.857 1260.26 983.561 1285.32 986.452 L 1436.1 1003.69 L 1537.01 1013.97 C 1553.87 1015.77 1572.89 1017.14 1589.35 1020.63 C 1638.33 1031.01 1667.47 1085.18 1656.48 1132.68 C 1650.95 1157.01 1635.84 1178.08 1614.56 1191.11 C 1584.73 1209.35 1547.83 1203.26 1514 1202.61 L 1372.74 1199.47 L 1213.58 1195.23 C 1161.31 1193.82 1110.6 1199.66 1070.37 1158.7 C 1057.85 1145.96 1047.4 1132.23 1036.32 1118.28 L 994.989 1066.64 L 860.865 898.946 C 840.25 872.835 819.915 845.192 797.562 820.42 C 794.514 817.043 789.166 815.918 784.856 814.862 C 774.215 818.051 760.926 828.955 769.029 840.602 C 782.963 860.629 799.198 879.992 814.555 899.035 C 837.799 927.842 860.893 956.77 883.834 985.819 C 895.954 1000.97 909.172 1016.13 920.649 1031.6 C 909.031 1071.51 899.173 1124.17 899.253 1165.89 C 895.184 1170.64 890.335 1176.86 886.741 1181.99 C 862.446 1216.68 835.823 1249.86 812.062 1284.85 C 810.231 1287.55 809.372 1291.38 809.609 1294.62 C 810.019 1299.9 812.658 1304.74 816.864 1307.95 C 820.463 1310.73 825.049 1311.92 829.548 1311.23 C 838.705 1309.8 844.407 1299.58 849.548 1292.56 C 857.541 1281.66 865.814 1270.55 873.48 1259.43 C 881.848 1249.51 891.361 1234.6 899.7 1223.98 C 928.665 1187.06 955.359 1146.84 983.965 1109.89 C 1026.49 1163.39 1061.65 1219.48 1137.13 1228.01 C 1158.93 1230.47 1182.97 1230.06 1205 1230.49 C 1236.57 1231.01 1268.13 1231.89 1299.69 1233.11 L 1162.97 1468.44 L 1116.56 1548.55 C 1094.56 1586.8 1080.41 1614.98 1050.49 1648.15 C 994.329 1710.5 920.814 1750.02 836.332 1754.65 C 536.169 1771.12 425.561 1463.7 413.698 1215.18 C 404.613 1024.87 435.943 847.249 538.541 682.994 C 596.599 590.047 666.925 497.304 786.666 490.47 z"/>
<path transform="translate(0,0)" fill="rgb(0,0,0)" d="M 1164.56 318.4 C 1219.71 314.307 1274.28 331.888 1316.67 367.405 C 1359.59 403.947 1388.63 457.325 1392.84 513.814 C 1397.17 571.763 1378.01 629.017 1339.67 672.688 C 1302.73 714.928 1250.71 741.014 1194.76 745.356 C 1182.86 746.923 1167.99 745.358 1156.71 744.752 C 1143.19 744.025 1091.61 732.179 1084.01 721.75 C 1066.08 697.141 1048.69 668.077 1031.75 642.188 C 1010.13 609.151 988.664 575.476 967.215 542.273 C 965.446 539.819 964.72 536.919 964.661 533.858 C 962.409 416.046 1050.31 328.081 1164.56 318.4 z"/>
<path transform="translate(0,0)" fill="rgb(0,0,0)" d="M 1323.5 1233.38 L 1480.5 1237.6 C 1511.25 1238.26 1541.12 1239.36 1571.99 1239.12 C 1589.21 1330.35 1610.36 1425.86 1629.76 1517 L 1644.29 1585.06 C 1654.85 1634 1664.4 1672.08 1625.18 1712.58 C 1613.92 1724.01 1600.16 1732.67 1584.97 1737.86 C 1537.45 1754.15 1484.82 1731.18 1461.44 1687.56 C 1453.02 1671.85 1448.56 1650.23 1443.47 1632.83 L 1422.14 1561.67 L 1364.07 1367.41 C 1350.81 1322.83 1338.27 1277.52 1323.5 1233.38 z"/>
<path transform="translate(0,0)" fill="rgb(0,0,0)" d="M 1329.39 747.491 C 1369.15 748.371 1394.21 753.093 1427.99 776 C 1478.53 810.277 1491.1 855.417 1501.07 911.972 C 1504.65 932.279 1510.15 955.117 1514.07 976.07 L 1375.76 960.736 C 1347.9 957.182 1320.02 953.835 1292.11 950.694 C 1272.31 948.419 1247.94 945.32 1228.15 944.261 C 1224.61 939.465 1220.96 933.724 1217.75 928.633 C 1202.99 905.194 1186.78 882.176 1172.65 858.395 C 1213.52 794.938 1248.74 752.627 1329.39 747.491 z"/>
</svg>